<?xml version="1.0" standalone="no"?>
<!DOCTYPE svg PUBLIC "-//W3C//DTD SVG 20010904//EN"
 "http://www.w3.org/TR/2001/REC-SVG-20010904/DTD/svg10.dtd">
<svg version="1.0" xmlns="http://www.w3.org/2000/svg"
 width="25px" height="25px" viewBox="0 0 512.000000 512.000000"
 preserveAspectRatio="xMidYMid meet">

<g transform="translate(0.000000,512.000000) scale(0.100000,-0.100000)"
fill="#000000" stroke="none">
<path d="M1272 4964 c-22 -15 -22 -18 -22 -274 l0 -258 -177 -4 c-175 -3 -179
-4 -231 -33 -59 -32 -91 -66 -125 -129 -19 -37 -22 -60 -25 -218 l-4 -178
-258 0 c-256 0 -259 0 -274 -22 -20 -28 -20 -58 0 -86 15 -22 18 -22 275 -22
l259 0 0 -180 0 -180 -249 0 c-236 0 -250 -1 -275 -21 -32 -25 -35 -70 -6 -99
19 -19 33 -20 275 -20 l255 0 0 -180 0 -180 -249 0 c-236 0 -250 -1 -275 -21
-32 -25 -35 -70 -6 -99 19 -19 33 -20 275 -20 l255 0 0 -180 0 -180 -255 0
c-242 0 -256 -1 -275 -20 -29 -29 -26 -74 6 -99 25 -20 39 -21 275 -21 l249 0
0 -180 0 -180 -255 0 c-242 0 -256 -1 -275 -20 -29 -29 -26 -74 6 -99 25 -20
39 -21 275 -21 l249 0 0 -180 0 -180 -259 0 c-257 0 -260 0 -275 -22 -20 -28
-20 -58 0 -86 15 -22 18 -22 274 -22 l258 0 4 -178 c3 -158 6 -181 25 -218 34
-63 66 -97 125 -129 52 -29 56 -30 231 -33 l177 -4 0 -258 c0 -256 0 -259 22
-274 12 -9 32 -16 43 -16 11 0 31 7 43 16 22 15 22 18 22 275 l0 259 180 0
180 0 0 -249 c0 -236 1 -250 21 -275 25 -32 70 -35 99 -6 19 19 20 33 20 275
l0 255 180 0 180 0 0 -249 c0 -236 1 -250 21 -275 26 -33 70 -35 99 -4 19 21
20 34 20 275 l0 253 180 0 180 0 0 -255 c0 -242 1 -256 20 -275 29 -29 74 -26
99 6 20 25 21 39 21 275 l0 249 180 0 180 0 0 -255 c0 -242 1 -256 20 -275 29
-29 74 -26 99 6 20 25 21 39 21 275 l0 249 180 0 180 0 0 -259 c0 -257 0 -260
22 -275 12 -9 32 -16 43 -16 11 0 31 7 43 16 22 15 22 18 22 275 l0 259 153 0
c175 0 232 12 299 63 26 20 54 55 73 92 29 57 30 62 33 232 l4 173 258 0 c256
0 259 0 274 22 20 28 20 58 0 86 -15 22 -18 22 -275 22 l-259 0 0 180 0 179
254 3 c233 3 256 5 275 22 27 24 27 70 1 96 -19 19 -33 20 -275 20 l-255 0 0
180 0 180 249 0 c236 0 250 1 275 21 32 25 35 70 6 99 -19 19 -33 20 -275 20
l-255 0 0 180 0 180 253 0 c241 0 254 1 275 20 31 29 29 73 -4 99 -25 20 -39
21 -275 21 l-249 0 0 180 0 180 255 0 c242 0 256 1 275 20 29 29 26 74 -6 99
-25 20 -39 21 -275 21 l-249 0 0 180 0 180 259 0 c257 0 260 0 275 22 9 12 16
32 16 43 0 11 -7 31 -16 43 -15 22 -18 22 -274 22 l-258 0 -4 178 c-3 174 -4
178 -33 230 -32 59 -66 91 -129 125 -37 19 -60 22 -218 25 l-178 4 0 258 c0
256 0 259 -22 274 -28 20 -58 20 -86 0 -22 -15 -22 -18 -22 -275 l0 -259 -180
0 -180 0 0 249 c0 236 -1 250 -21 275 -25 32 -70 35 -99 6 -19 -19 -20 -33
-20 -275 l0 -255 -180 0 -180 0 0 249 c0 236 -1 250 -21 275 -25 32 -70 35
-99 6 -19 -19 -20 -33 -20 -275 l0 -255 -180 0 -180 0 0 255 c0 242 -1 256
-20 275 -29 29 -74 26 -99 -6 -20 -25 -21 -39 -21 -275 l0 -249 -180 0 -180 0
0 255 c0 242 -1 256 -20 275 -29 29 -74 26 -99 -6 -20 -25 -21 -39 -21 -275
l0 -249 -180 0 -180 0 0 259 c0 257 0 260 -22 275 -12 9 -32 16 -43 16 -11 0
-31 -7 -43 -16z m2946 -694 c18 -11 41 -34 52 -52 20 -33 20 -54 20 -1658 0
-1604 0 -1625 -20 -1658 -11 -18 -34 -41 -52 -52 -33 -20 -54 -20 -1658 -20
-1604 0 -1625 0 -1658 20 -18 11 -41 34 -52 52 -20 33 -20 54 -20 1658 0 1604
0 1625 20 1658 11 18 34 41 52 52 33 20 54 20 1658 20 1604 0 1625 0 1658 -20z"/>
<path d="M1173 3990 c-66 -40 -63 0 -63 -845 0 -752 0 -765 20 -785 25 -25 61
-26 91 -1 23 19 24 25 27 180 l3 161 208 0 208 0 17 -39 c24 -51 81 -110 131
-132 59 -27 157 -25 220 5 117 54 172 188 133 320 -19 63 -100 140 -167 160
-69 20 -96 20 -160 -1 -64 -20 -123 -70 -151 -128 l-22 -45 -209 0 -209 0 0
240 0 240 383 0 383 0 12 -34 c16 -44 77 -106 127 -131 57 -28 175 -27 230 2
47 25 95 74 121 123 27 52 26 172 -3 226 -86 161 -298 192 -425 61 -20 -21
-43 -54 -50 -73 l-12 -34 -383 0 -383 0 0 205 0 205 1310 0 1310 0 0 -140 0
-140 -263 0 -263 0 -64 -65 -64 -65 -67 6 c-112 11 -201 -36 -245 -129 -59
-128 -12 -266 111 -323 205 -96 417 116 320 320 l-19 39 47 43 46 44 230 0
231 0 0 -265 0 -265 -252 0 -253 0 -70 -70 -70 -70 -39 11 c-98 27 -219 -29
-267 -123 -83 -162 33 -351 215 -350 97 0 184 56 220 144 22 51 20 143 -3 194
l-19 42 42 41 42 41 227 0 227 0 0 -390 0 -390 -259 0 -259 0 -22 45 c-45 94
-159 154 -263 141 -254 -34 -313 -377 -85 -490 65 -32 161 -35 224 -7 51 23
105 78 129 131 l18 40 259 0 258 0 0 -310 0 -310 -585 0 -585 0 0 162 0 161
-110 112 -110 111 0 116 0 116 45 22 c198 96 186 390 -20 476 -54 22 -151 18
-210 -10 -195 -90 -190 -388 8 -471 l37 -15 0 -143 0 -142 110 -110 110 -110
0 -137 0 -138 -215 0 -215 0 0 191 0 191 -69 72 c-70 71 -70 71 -61 111 18 78
-10 163 -72 222 -136 131 -361 58 -400 -130 -24 -115 50 -238 163 -271 67 -20
91 -20 159 4 l55 19 43 -42 42 -41 0 -163 0 -163 -370 0 -370 0 0 164 c0 184
-8 218 -51 237 -26 10 -34 9 -57 -8 l-27 -20 -3 -207 c-3 -230 2 -250 61 -286
31 -20 61 -20 1387 -20 1326 0 1356 0 1387 20 68 41 63 -62 63 1430 0 1492 5
1389 -63 1430 -31 20 -61 20 -1387 20 -1326 0 -1356 0 -1387 -20z m1157 -495
c55 -28 76 -105 45 -165 -36 -69 -144 -80 -197 -21 -23 26 -28 41 -28 82 0 45
4 55 34 85 28 28 42 34 75 34 23 0 55 -7 71 -15z m846 -183 c81 -65 43 -182
-58 -182 -61 0 -101 40 -101 101 0 35 6 48 32 71 37 33 94 38 127 10z m-1197
-436 c39 -21 62 -60 63 -108 1 -49 -25 -86 -75 -111 -111 -56 -221 98 -136
190 42 44 97 55 148 29z m1207 -225 c44 -27 60 -77 40 -124 -30 -72 -120 -86
-170 -26 -38 45 -35 92 8 135 40 40 75 44 122 15z m-713 -263 c29 -15 57 -70
57 -111 0 -53 -50 -106 -106 -114 -77 -10 -134 43 -134 125 0 90 99 144 183
100z m714 -372 c41 -44 44 -96 10 -147 -65 -97 -217 -51 -217 67 0 80 51 127
130 120 35 -3 51 -11 77 -40z m-1371 -65 c85 -52 57 -174 -43 -188 -39 -5 -46
-2 -78 30 -52 52 -45 119 17 157 41 25 65 25 104 1z"/>
<path d="M1130 2110 c-17 -17 -20 -33 -20 -113 0 -77 3 -97 18 -109 45 -39 95
-26 113 29 17 52 8 167 -15 192 -24 27 -70 27 -96 1z"/>
</g>
</svg>
